<svg xmlns="http://www.w3.org/2000/svg" width="648" height="460.8" viewBox="0 0 648 460.8"><filter id="dropshadow" height="130%"><feGaussianBlur in="SourceAlpha" stdDeviation="3"/><feOffset dx="2" dy="2" result="offsetblur"/><feMerge><feMergeNode/><feMergeNode in="SourceGraphic"/></feMerge></filter><style>.style0{clip-rule: evenodd;fill-rule: evenodd;}</style><path fill="#fff" d="M600.469 151.204c-30.882.265-84.944 61.677-88.072 89.9.312.6.6 1.2.9 1.875 52.026 4 52.603-83.771 100.252-75.892.312.9.6 1.9.9 2.8 4.694 16.292-37.141 46.965-45.91 58.09.215 6.2 1.5 9 5.6 11.244 17.327 14.7 54.594-26.726 65.585-32.792h.9v5.621c-10.986 23.48-54.661 84.795-89.009 60.901-1.805-6.147-1.616-19.6-4.685-27.171l-3.748 3.748c-19.03 8.705-32.775 30.672-60.901 22.486-1.622-4.183-2.469-11.535-4.684-16.864-18.724 10.856-40.649 36.48-69.333 29.981-5.524-7.67-7.746-15.781-8.433-29.044-20.27 13.997-49.362 45.965-82.45 38.4-5.724-7.48-9.829-12.848-10.307-26.234l-2.811.937c-14.477 19.286-79.971 76.798-113.37 68.4-24.528-31.806 17.322-56.525 33.729-74.019-4.533-3.42-8.663-4.799-11.243-10.306-4.611-20.571 43.056-52.41 58.09-59.964 6.402-3.217 23.548-10.73 31.856-4.685 11.708 9.019-7.544 30.744-13.117 33.73-2.832-1.18-1.121.017-2.811-1.875l-.937-4.684c-16.641-.026-37.274 14.609-40.288 28.108.312.3.6.6.9.9 11.761-.386 17.438-5.451 28.108-3.748v3.748c-16.295 16.463-39.686 31.167-50.595 52.5 1.238 3.585-.001 1.9 2.8 3.748 12.391 2.7 43.088-24.837 52.469-31.856l29.982-23.423c1.874-7.183 3.748-14.367 5.621-21.55l24.361-53.405c17.349-29.701 36.502-56.18 59.964-79.64 8.418-8.418 58.132-54.724 75.892-42.162 11.603 8.625-17.279 51.195-22.487 59.027-26.807 40.322-60.04 75.985-93.694 109.6-10.205 10.201-27.62 26.508-15.928 46.847l1.9.937c15.536-.572 53.205-22.479 59.027-31.855 10.249-16.504 13.063-36.333 22.487-52.469 20.094-34.406 43.265-65.285 71.207-91.82 10.592-10.058 56.851-47.176 72.145-26.234-16.341 57.104-77.888 117.154-119.929 150.846-4.735 3.795-36.306 33.966-17.801 45.91 11.035 7.1 43.733-23.949 49.657-29.045 10.038-8.634 14.993-24.496 22.487-35.604 17.235-25.547 38.953-47.368 66.523-62.774 14.041-7.846 39.579-16.318 56.216-5.622-.081 14.897-12.704 30.687-26.234 31.856v-1.875c-.157-1.732-.45-3.632-.75-5.528zm-140.541-80.577c-20.047 38.999-70.588 104.719-104 130.234 25.684-50.202 62.436-94.526 101.189-132.108.937.647 1.883 1.247 2.783 1.874zm94.631 2.811c-6.001 24.958-86.458 111.286-107.748 127.4 25.074-50.292 64.679-90.935 104-127.423 1.249-.015 2.489-.015 3.789.023zm-343.857 13.162c56.428-1.21 91.3 19.9 60.9 71.208-18.402 31.062-52.032 55.918-82.45 74.955-16.551 9.056-33.107 18.115-49.658 27.2-4.685 11.242-9.371 22.488-14.054 33.73-9.369 16.863-18.74 33.731-28.108 50.595-8.518 14.187-44.424 72.605-63.712 66.5l-2.811-1.874c-.465-49.481 49.773-94.78 59.964-135.856-3.435-1.874-6.871-3.748-10.307-5.621v-2.812c8.119-4.371 16.241-8.745 24.361-13.117 25.267-31.567 35.889-77.139 68.396-101.189 1.561.3 3.1.6 4.7.937 4.104 15.993-19.089 59.723-24.361 75.892 36.979-17.676 72.314-44.986 95.568-76.829 3.785-5.182 21.024-23.596 14.991-35.603-5.125-10.202-52.056 4.078-59.027 6.559-38.31 13.627-126.576 51.893-147.099 79.6 1.862 4.6 3.8 3.4 8.4 4.685v.937c-4.583 9.749-34.024 26.657-50.595 19.7-3.424-1.545-4.039-2.238-5.622-5.622-5.66-22.54 24.208-44.589 36.541-54.342 32.668-25.836 67.655-48.597 109.622-65.585l23.042-8.994s5.947-1.865 12.708-2.902c7.618-1.252 16.209-1.552 18.609-2.196zm381.334 97.4v3.748l-17.802 17.802-.937-.937c4.451-8.373 9.442-14.405 15.927-20.613.938 0 1.876 0 2.776-.003z" class="style0"/></svg>